<mxfile host="65bd71144e">
    <diagram id="q7JZCSy0gCoaakLFXjkL" name="Page-1">
        <mxGraphModel dx="1074" dy="709" grid="1" gridSize="10" guides="1" tooltips="1" connect="1" arrows="1" fold="1" page="1" pageScale="1" pageWidth="827" pageHeight="1169" math="0" shadow="0">
            <root>
                <mxCell id="0"/>
                <mxCell id="1" parent="0"/>
                <mxCell id="114" style="edgeStyle=none;html=1;exitX=0.5;exitY=1;exitDx=0;exitDy=0;exitPerimeter=0;entryX=0.5;entryY=0;entryDx=0;entryDy=0;" edge="1" parent="1" source="19" target="21">
                    <mxGeometry relative="1" as="geometry"/>
                </mxCell>
                <mxCell id="19" value="Start" style="strokeWidth=2;html=1;shape=mxgraph.flowchart.start_1;whiteSpace=wrap;" parent="1" vertex="1">
                    <mxGeometry x="130" y="30" width="100" height="60" as="geometry"/>
                </mxCell>
                <mxCell id="115" style="edgeStyle=none;html=1;exitX=0.5;exitY=1;exitDx=0;exitDy=0;entryX=0.5;entryY=0;entryDx=0;entryDy=0;" edge="1" parent="1" source="21" target="63">
                    <mxGeometry relative="1" as="geometry"/>
                </mxCell>
                <mxCell id="21" value="get arr: number[ ]" style="shape=parallelogram;html=1;strokeWidth=2;perimeter=parallelogramPerimeter;whiteSpace=wrap;rounded=1;arcSize=12;size=0.23;" parent="1" vertex="1">
                    <mxGeometry x="100" y="110" width="160" height="40" as="geometry"/>
                </mxCell>
                <mxCell id="22" value="Stop" style="strokeWidth=2;html=1;shape=mxgraph.flowchart.start_1;whiteSpace=wrap;" parent="1" vertex="1">
                    <mxGeometry x="130" y="260" width="100" height="60" as="geometry"/>
                </mxCell>
                <mxCell id="116" style="edgeStyle=none;html=1;exitX=0.5;exitY=1;exitDx=0;exitDy=0;entryX=0.5;entryY=0;entryDx=0;entryDy=0;entryPerimeter=0;" edge="1" parent="1" source="63" target="22">
                    <mxGeometry relative="1" as="geometry"/>
                </mxCell>
                <mxCell id="63" value="print&amp;nbsp;&lt;span&gt;console.log(&lt;br&gt;&lt;/span&gt;&lt;span&gt;`${arr[0]}` +&amp;nbsp;&lt;/span&gt;&lt;span&gt;' ' +&amp;nbsp;&lt;/span&gt;&lt;span&gt;`${arr[1]}` +&amp;nbsp;&lt;/span&gt;&lt;span&gt;' ' +&amp;nbsp;&lt;/span&gt;&lt;span&gt;`${arr[2]}` +&amp;nbsp;&lt;/span&gt;&lt;span&gt;'\n' +&amp;nbsp;&lt;/span&gt;&lt;span&gt;`${arr[3]}` +&amp;nbsp;&lt;/span&gt;&lt;span&gt;' ' +&amp;nbsp;&lt;/span&gt;&lt;span&gt;`${arr[4]}` +&amp;nbsp;&lt;/span&gt;&lt;span&gt;' ' +&amp;nbsp;&lt;/span&gt;&lt;span&gt;`${arr[5]}` +&amp;nbsp;&lt;/span&gt;&lt;span&gt;'\n' +&amp;nbsp;&lt;/span&gt;&lt;span&gt;`${arr[6]}` +&amp;nbsp;&lt;/span&gt;&lt;span&gt;' ' +&amp;nbsp;&lt;/span&gt;&lt;span&gt;`${arr[7]}` +&amp;nbsp;&lt;/span&gt;&lt;span&gt;' ' +&amp;nbsp;&lt;/span&gt;&lt;span&gt;`${arr[8]}` +&amp;nbsp;&lt;/span&gt;&lt;span&gt;'\n'&lt;/span&gt;&lt;span&gt;)&lt;/span&gt;&lt;span&gt;&lt;br&gt;&lt;/span&gt;" style="shape=parallelogram;html=1;strokeWidth=2;perimeter=parallelogramPerimeter;whiteSpace=wrap;rounded=1;arcSize=12;size=0.23;" parent="1" vertex="1">
                    <mxGeometry x="30" y="170" width="300" height="70" as="geometry"/>
                </mxCell>
            </root>
        </mxGraphModel>
    </diagram>
</mxfile>